<?xml version="1.0" encoding="UTF-8" standalone="no"?>
<svg
   xmlns:dc="http://purl.org/dc/elements/1.1/"
   xmlns:cc="http://creativecommons.org/ns#"
   xmlns:rdf="http://www.w3.org/1999/02/22-rdf-syntax-ns#"
   xmlns:svg="http://www.w3.org/2000/svg"
   xmlns="http://www.w3.org/2000/svg"
   viewBox="0 0 88.582123 88.582123"
   height="88.582123"
   width="88.582123"
   xml:space="preserve"
   version="1.1"
   id="svg2"><metadata
     id="metadata8"><rdf:RDF><cc:Work
         rdf:about=""><dc:format>image/svg+xml</dc:format><dc:type
           rdf:resource="http://purl.org/dc/dcmitype/StillImage" /></cc:Work></rdf:RDF></metadata><defs
     id="defs6" /><g
     transform="matrix(1.25,0,0,-1.25,0,88.582125)"
     id="g10"><g
       transform="translate(48.5093,26.7041)"
       id="g12"><path
         id="path14"
         style="fill:#e67e33;fill-opacity:1;fill-rule:nonzero;stroke:none"
         d="m 0,0 -14.978,8.629 0,-17.899 L 0,0 Z" /></g><g
       transform="translate(18.3628,44.2837)"
       id="g16"><path
         id="path18"
         style="fill:#e78733;fill-opacity:1;fill-rule:nonzero;stroke:none"
         d="m 0,0 14.801,-8.525 0,17.686 L 0,0 Z" /></g><g
       transform="translate(48.5093,43.3828)"
       id="g20"><path
         id="path22"
         style="fill:#ebac34;fill-opacity:1;fill-rule:nonzero;stroke:none"
         d="m 0,0 -14.978,10.052 0,-17.899 L 0,0 Z" /></g><g
       transform="translate(33.5313,53.4348)"
       id="g24"><path
         id="path26"
         style="fill:#ffffff;fill-opacity:1;fill-rule:nonzero;stroke:none"
         d="M 0,0 -0.184,0.123 0,0 Z" /></g><g
       transform="translate(33.1632,35.3439)"
       id="g28"><path
         id="path30"
         style="fill:#ffffff;fill-opacity:1;fill-rule:nonzero;stroke:none"
         d="m 0,0 0.184,0.095 0,0.214 L 0,0.415 0,0 Z" /></g><g
       transform="translate(33.3477,35.4393)"
       id="g32"><path
         id="path34"
         style="fill:#ffffff;fill-opacity:1;fill-rule:nonzero;stroke:none"
         d="m 0,0 0.184,-0.106 0,0.202 L 0,0 Z" /></g><g
       transform="translate(33.1632,53.4447)"
       id="g36"><path
         id="path38"
         style="fill:#ffffff;fill-opacity:1;fill-rule:nonzero;stroke:none"
         d="m 0,0 0,-17.686 0.184,-0.106 0,-0.213 0.184,0.096 0,17.899 L 0.184,0.113 0,0 Z" /></g><g
       transform="translate(33.1632,35.3439)"
       id="g40"><path
         id="path42"
         style="fill:#ffffff;fill-opacity:1;fill-rule:nonzero;stroke:none"
         d="m 0,0 0,-17.899 0.184,-0.124 0.184,0.114 0,17.898 L 0.184,0.095 0,0 Z" /></g><g
       transform="translate(33.1636,35.1348)"
       id="g44"><path
         id="path46"
         style="fill:#e05c31;fill-opacity:1;fill-rule:nonzero;stroke:none"
         d="M 0,0 -14.805,-7.755 0,-17.69 0,0 Z" /></g><g
       transform="translate(33.1587,35.5491)"
       id="g48"><path
         id="path50"
         style="fill:#ffffff;fill-opacity:1;fill-rule:nonzero;stroke:none"
         d="M 0,0 0.189,-0.11 0.104,0.054 0,0 Z" /></g><g
       transform="translate(18.3591,27.3798)"
       id="g52"><path
         id="path54"
         style="fill:#ffffff;fill-opacity:1;fill-rule:nonzero;stroke:none"
         d="M 0,0 -0.174,0.117 0,0 Z" /></g><g
       transform="translate(18.1854,27.4968)"
       id="g56"><path
         id="path58"
         style="fill:#ffffff;fill-opacity:1;fill-rule:nonzero;stroke:none"
         d="M 0,0 0,0.208 0,0 Z" /></g><g
       transform="translate(33.1632,35.3439)"
       id="g60"><path
         id="path62"
         style="fill:#ffffff;fill-opacity:1;fill-rule:nonzero;stroke:none"
         d="M 0,0 0,-0.209 0.27,-0.068 0.184,0.095 0,0 Z" /></g><g
       transform="translate(33.1587,35.5488)"
       id="g64"><path
         id="path66"
         style="fill:#ffffff;fill-opacity:1;fill-rule:nonzero;stroke:none"
         d="m 0,0 -14.974,-7.844 0,-0.208 0.174,-0.117 14.805,7.755 0,0.209 0.184,0.096 L 0,0 Z" /></g><g
       transform="translate(33.1636,35.3438)"
       id="g68"><path
         id="path70"
         style="fill:#ffffff;fill-opacity:1;fill-rule:nonzero;stroke:none"
         d="M 0,0 -14.979,-7.847 0,0 Z" /></g><g
       transform="translate(18.1851,27.7051)"
       id="g72"><path
         id="path74"
         style="fill:#dfb149;fill-opacity:1;fill-rule:nonzero;stroke:none"
         d="M 0,0 14.779,7.741 0,16.256 0,0 Z" /></g><g
       transform="translate(18.3628,44.2837)"
       id="g76"><path
         id="path78"
         style="fill:#ffffff;fill-opacity:1;fill-rule:nonzero;stroke:none"
         d="m 0,0 -0.178,-0.11 0,-0.213 14.78,-8.514 0.291,-0.166 0.092,0.159 0,0.213 L 0,0 Z" /></g><g
       transform="translate(33.3477,35.4393)"
       id="g80"><path
         id="path82"
         style="fill:#ffffff;fill-opacity:1;fill-rule:nonzero;stroke:none"
         d="M 0,0 0.092,0.16 0,0.213 0,0 Z" /></g><g
       transform="translate(34.1201,10.5693)"
       id="g84"><path
         id="path86"
         style="fill:#e05c31;fill-opacity:1;fill-rule:nonzero;stroke:none"
         d="m 0,0 -20.812,13.967 0,22.891 L 0,49.74 18.436,37.367 -0.772,24.87 19.285,11.936 0,0 Z M 6.432,25.245 24.885,37.194 0,53.941 -24.327,38.884 l 0,-26.758 L 0,-4.2 26.697,11.944 6.432,25.245 Z" /></g></g></svg>