<?xml version="1.0" encoding="utf-8"?>
<!-- Generator: Adobe Illustrator 15.0.0, SVG Export Plug-In . SVG Version: 6.00 Build 0)  -->
<!DOCTYPE svg PUBLIC "-//W3C//DTD SVG 1.1//EN" "http://www.w3.org/Graphics/SVG/1.1/DTD/svg11.dtd">
<svg version="1.1"
	 id="svg2" xmlns:svg="http://www.w3.org/2000/svg" xmlns:rdf="http://www.w3.org/1999/02/22-rdf-syntax-ns#" xmlns:cc="http://creativecommons.org/ns#" xmlns:dc="http://purl.org/dc/elements/1.1/"
	 xmlns="http://www.w3.org/2000/svg" xmlns:xlink="http://www.w3.org/1999/xlink" x="0px" y="0px" width="38.977px"
	 height="38.977px" viewBox="0 0 38.977 38.977" enable-background="new 0 0 38.977 38.977" xml:space="preserve">
<g id="g10" transform="matrix(1.25,0,0,-1.25,0,38.975875)">
	<g id="g12" transform="translate(21.0371,11.9082)">
		<path id="path14" fill="#E67E33" d="M-2.787,1.845l-3.162,1.822v-3.779L-2.787,1.845z"/>
	</g>
	<g id="g16" transform="translate(8.3096,19.3315)">
		<path id="path18" fill="#E78733" d="M3.577-1.867l3.124-1.8v3.734L3.577-1.867z"/>
	</g>
	<g id="g20" transform="translate(21.0371,18.9507)">
		<path id="path22" fill="#EBAC34" d="M-2.787-1.677l-3.162,2.123v-3.779L-2.787-1.677z"/>
	</g>
	<g id="g24" transform="translate(14.7141,23.1939)">
		<path id="path26" fill="#FFFFFF" d="M0.374-3.798L0.336-3.772L0.374-3.798z"/>
	</g>
	<g id="g28" transform="translate(14.5584,15.5565)">
		<path id="path30" fill="#FFFFFF" d="M0.452,0.02l0.039,0.02v0.045L0.452,0.108V0.02z"/>
	</g>
	<g id="g32" transform="translate(14.6367,15.597)">
		<path id="path34" fill="#FFFFFF" d="M0.413,0l0.038-0.023v0.043L0.413,0z"/>
	</g>
	<g id="g36" transform="translate(14.5584,23.1984)">
		<path id="path38" fill="#FFFFFF" d="M0.452-3.8v-3.733l0.039-0.023v-0.045l0.039,0.02v3.778L0.491-3.776L0.452-3.8z"/>
	</g>
	<g id="g40" transform="translate(14.5584,15.5565)">
		<path id="path42" fill="#FFFFFF" d="M0.452,0.02v-3.778l0.039-0.027L0.53-3.761v3.779L0.491,0.041L0.452,0.02z"/>
	</g>
	<g id="g44" transform="translate(14.5586,15.4683)">
		<path id="path46" fill="#E05C31" d="M0.452,0.065l-3.126-1.637l3.126-2.098V0.065z"/>
	</g>
	<g id="g48" transform="translate(14.5566,15.6429)">
		<path id="path50" fill="#FFFFFF" d="M0.453-0.023l0.04-0.023L0.474-0.011L0.453-0.023z"/>
	</g>
	<g id="g52" transform="translate(8.3079,12.195)">
		<path id="path54" fill="#FFFFFF" d="M3.577,1.702L3.54,1.726L3.577,1.702z"/>
	</g>
	<g id="g56" transform="translate(8.2341,12.2436)">
		<path id="path58" fill="#FFFFFF" d="M3.614,1.677v0.044V1.677z"/>
	</g>
	<g id="g60" transform="translate(14.5584,15.5565)">
		<path id="path62" fill="#FFFFFF" d="M0.452,0.02v-0.044l0.056,0.03L0.491,0.041L0.452,0.02z"/>
	</g>
	<g id="g64" transform="translate(14.5562,15.6431)">
		<path id="path66" fill="#FFFFFF" d="M0.453-0.022l-3.161-1.655v-0.045l0.037-0.024L0.455-0.11v0.045l0.039,0.02L0.453-0.022z"/>
	</g>
	<g id="g68" transform="translate(14.5586,15.5566)">
		<path id="path70" fill="#FFFFFF" d="M0.452,0.02L-2.71-1.636L0.452,0.02z"/>
	</g>
	<g id="g72" transform="translate(8.2344,12.332)">
		<path id="path74" fill="#DFB149" d="M3.614,1.632l3.12,1.634l-3.12,1.798V1.632z"/>
	</g>
	<g id="g76" transform="translate(8.3096,19.3315)">
		<path id="path78" fill="#FFFFFF" d="M3.577-1.867L3.539-1.89v-0.045l3.12-1.797l0.062-0.035l0.02,0.034v0.045L3.577-1.867z"/>
	</g>
	<g id="g80" transform="translate(14.6367,15.597)">
		<path id="path82" fill="#FFFFFF" d="M0.413,0l0.019,0.034l-0.019,0.01V0z"/>
	</g>
	<g id="g84" transform="translate(14.9619,5.0957)">
		<path id="path86" fill="#E05C31" d="M0.25,5.251l-4.394,2.948v4.834l4.394,2.72l3.892-2.612l-4.055-2.638l4.234-2.73L0.25,5.251z
			 M1.608,10.58l3.896,2.523L0.25,16.639l-5.135-3.179V7.811L0.25,4.365l5.636,3.408L1.608,10.58z"/>
	</g>
</g>
</svg>
