<?xml version="1.0" encoding="UTF-8" standalone="no"?>
<svg
   xmlns:dc="http://purl.org/dc/elements/1.1/"
   xmlns:cc="http://creativecommons.org/ns#"
   xmlns:rdf="http://www.w3.org/1999/02/22-rdf-syntax-ns#"
   xmlns:svg="http://www.w3.org/2000/svg"
   xmlns="http://www.w3.org/2000/svg"
   viewBox="0 0 389.76501 155.905"
   height="155.905"
   width="389.76501"
   xml:space="preserve"
   version="1.1"
   id="svg2"><metadata
     id="metadata8"><rdf:RDF><cc:Work
         rdf:about=""><dc:format>image/svg+xml</dc:format><dc:type
           rdf:resource="http://purl.org/dc/dcmitype/StillImage" /></cc:Work></rdf:RDF></metadata><defs
     id="defs6"><clipPath
       id="clipPath16"
       clipPathUnits="userSpaceOnUse"><path
         id="path18"
         d="m 0,124.724 311.812,0 L 311.812,0 0,0 0,124.724 Z" /></clipPath></defs><g
     transform="matrix(1.25,0,0,-1.25,0,155.905)"
     id="g10"><g
       id="g12"><g
         clip-path="url(#clipPath16)"
         id="g14"><g
           transform="translate(130.7891,59.4521)"
           id="g20"><path
             id="path22"
             style="fill:#e05c31;fill-opacity:1;fill-rule:nonzero;stroke:none"
             d="m 0,0 -8.228,0 0,-8.059 5.782,-0.688 c 0.611,-0.069 1.334,-0.069 1.945,-0.069 3.503,0.103 6.393,2.411 6.393,4.581 C 5.892,-2.169 3.279,-0.206 0,0 m -1.057,10.091 -0.055,0 -7.116,-0.138 0,-7.232 7.783,0 c 2.669,0.241 4.837,1.998 4.837,3.719 0,1.86 -2.447,3.651 -5.449,3.651 m 0.556,-21.662 c -0.667,0 -1.334,0 -1.945,0.069 l -6.003,0.654 -0.223,-0.723 -5.003,0 0,24.175 12.563,0.242 0.055,0 c 6.004,0.137 10.84,-2.721 10.84,-6.406 0,-1.997 -1.389,-3.719 -3.669,-4.89 3.114,-1.205 5.17,-3.272 5.17,-5.785 0,-4.031 -5.281,-7.336 -11.785,-7.336" /></g><g
           transform="translate(168.2588,65.9961)"
           id="g24"><path
             id="path26"
             style="fill:#e05c31;fill-opacity:1;fill-rule:nonzero;stroke:none"
             d="m 0,0 c 0,1.136 -0.666,2.135 -2.001,2.962 -1.335,0.826 -2.946,1.239 -4.781,1.239 l -0.333,0 c -1.891,0 -3.502,-0.413 -4.836,-1.239 C -13.286,2.135 -13.897,1.136 -13.897,0 l 0,-11.778 c 0,-1.171 0.611,-2.17 1.946,-2.996 1.334,-0.828 2.945,-1.241 4.836,-1.241 l 0.333,0 c 1.835,0 3.446,0.413 4.781,1.241 1.335,0.826 2.001,1.825 2.001,2.996 L 0,0 Z m 5.392,-11.193 c 0,-2.101 -1.167,-3.892 -3.558,-5.372 -2.39,-1.447 -5.28,-2.205 -8.616,-2.205 l -0.333,0 c -3.391,0 -6.281,0.758 -8.672,2.205 -2.391,1.48 -3.558,3.271 -3.558,5.372 l 0,10.573 c 0,2.1 1.167,3.891 3.558,5.372 2.391,1.481 5.281,2.204 8.672,2.204 l 0.333,0 c 3.336,0 6.226,-0.723 8.616,-2.204 C 4.225,3.271 5.392,1.48 5.392,-0.62 l 0,-10.573 z" /></g><g
           transform="translate(206.9512,47.8809)"
           id="g28"><path
             id="path30"
             style="fill:#e05c31;fill-opacity:1;fill-rule:nonzero;stroke:none"
             d="M 0,0 -5.78,0 -13.007,9.815 -20.233,0 l -5.782,0 10.173,12.812 -10.006,11.605 5.892,0 6.949,-8.713 6.948,8.713 5.893,0 L -10.005,12.812 0,0 Z" /></g><g
           transform="translate(236.1396,47.8809)"
           id="g32"><path
             id="path34"
             style="fill:#e05c31;fill-opacity:1;fill-rule:nonzero;stroke:none"
             d="m 0,0 -5.67,0 0,21.662 -4.28,0 0,2.755 9.95,0 L 0,0 Z" /></g><g
           transform="translate(270.6084,65.5479)"
           id="g36"><path
             id="path38"
             style="fill:#e05c31;fill-opacity:1;fill-rule:nonzero;stroke:none"
             d="m 0,0 c 0,2.308 -3.057,4.167 -6.781,4.167 l -0.279,0 c -3.723,0 -6.781,-1.859 -6.781,-4.167 l 0,-10.917 c 0,-2.308 3.058,-4.167 6.781,-4.167 l 0.279,0 c 3.724,0 6.781,1.859 6.781,4.167 L 0,0 Z m 5.393,-10.331 c 0,-4.168 -5.448,-7.543 -12.174,-7.543 l -0.279,0 c -6.725,0 -12.172,3.375 -12.172,7.543 l 0,9.746 c 0,4.167 5.447,7.542 12.172,7.542 l 0.279,0 c 6.726,0 12.174,-3.375 12.174,-7.542 l 0,-9.746 z" /></g><g
           transform="translate(301.1855,47.8809)"
           id="g40"><path
             id="path42"
             style="fill:#e05c31;fill-opacity:1;fill-rule:nonzero;stroke:none"
             d="m 0,0 -5.67,0 0,21.662 -4.28,0 0,2.755 9.95,0 L 0,0 Z" /></g><g
           transform="translate(177.9434,32.96)"
           id="g44"><path
             id="path46"
             style="fill:#a2a2a2;fill-opacity:1;fill-rule:nonzero;stroke:none"
             d="m 0,0 -1.249,0 0,4.523 0.115,2.127 -0.56,-2.139 -1.224,-3.657 -1.197,0 -1.236,3.669 -0.536,2.127 0.103,-2.127 0,-4.523 -1.249,0 0,9.033 1.465,0 1.465,-4.497 0.586,-2.166 0.586,2.153 1.465,4.51 L 0,9.033 0,0 Z" /></g><g
           transform="translate(187.5225,40.4775)"
           id="g48"><path
             id="path50"
             style="fill:#a2a2a2;fill-opacity:1;fill-rule:nonzero;stroke:none"
             d="m 0,0 -2.778,-10.027 -1.261,0 1.018,3.414 L -5.313,0 -4.014,0 -2.498,-4.664 -1.262,0 0,0 Z" /></g><g
           transform="translate(201.0996,38.4893)"
           id="g52"><path
             id="path54"
             style="fill:#a2a2a2;fill-opacity:1;fill-rule:nonzero;stroke:none"
             d="m 0,0 c -0.191,0.535 -0.561,1.058 -1.108,1.096 l -0.077,0 c -0.828,0.051 -1.312,-0.471 -1.223,-1.185 0.064,-0.459 0.599,-0.777 1.236,-0.942 1.07,-0.281 2.344,-0.701 2.51,-2.09 0.217,-1.772 -1.121,-2.714 -2.803,-2.484 l -0.14,0.025 c -1.083,0.152 -1.962,0.79 -2.243,2.063 l 1.083,0.396 c 0.166,-0.79 0.574,-1.313 1.326,-1.363 L -1.3,-4.497 c 1.045,-0.064 1.529,0.445 1.441,1.197 -0.09,0.638 -0.613,0.969 -1.402,1.173 -1.083,0.293 -2.153,0.688 -2.281,1.898 -0.14,1.478 0.892,2.42 2.562,2.319 L -0.904,2.077 C 0.204,2.014 0.727,1.262 1.108,0.357 L 0,0 Z" /></g><g
           transform="translate(210.2207,39.4961)"
           id="g56"><path
             id="path58"
             style="fill:#a2a2a2;fill-opacity:1;fill-rule:nonzero;stroke:none"
             d="m 0,0 -1.325,0 0.063,-6.536 -1.274,0 0,6.536 -1.147,0 0,1.02 1.147,0 0.063,1.668 1.148,0 0,-1.668 L 0,1.02 0,0 Z" /></g><g
           transform="translate(216.7422,33.916)"
           id="g60"><path
             id="path62"
             style="fill:#a2a2a2;fill-opacity:1;fill-rule:nonzero;stroke:none"
             d="m 0,0 0.076,0 c 0.855,0 1.237,0.688 1.237,1.541 l 0,2.562 c 0,0.853 -0.382,1.541 -1.237,1.541 L 0,5.644 c -0.854,0 -1.223,-0.688 -1.223,-1.541 l 0,-2.562 C -1.223,0.688 -0.854,0 0,0 m 0.076,6.676 c 1.542,0 2.472,-1.249 2.472,-2.79 l 0,-2.128 c 0,-1.542 -0.93,-2.79 -2.472,-2.79 l -0.076,0 c -1.529,0 -2.472,1.248 -2.472,2.79 l 0,2.128 c 0,1.541 0.943,2.79 2.472,2.79 l 0.076,0 z" /></g><g
           transform="translate(226.1436,40.5283)"
           id="g64"><path
             id="path66"
             style="fill:#a2a2a2;fill-opacity:1;fill-rule:nonzero;stroke:none"
             d="m 0,0 0,-1.032 c -0.815,-0.026 -1.465,-0.866 -1.465,-1.682 l 0,-4.854 -1.249,0 0,7.568 1.032,0 0.115,-0.611 C -1.224,-0.229 -0.548,0 0,0" /></g><g
           transform="translate(233.4941,34.2598)"
           id="g68"><path
             id="path70"
             style="fill:#a2a2a2;fill-opacity:1;fill-rule:nonzero;stroke:none"
             d="M 0,0 -0.013,2.65 C -0.548,2.727 -0.828,2.765 -1.313,2.637 -2.103,2.421 -2.446,1.886 -2.446,1.261 l 0,-0.458 c 0.025,-0.79 0.42,-1.071 1.031,-1.071 0.153,0 0.421,0.013 0.65,0.064 L 0,0 Z m 1.261,3.529 0,-4.829 -1.147,0 -0.063,0.268 -0.701,-0.179 C -0.918,-1.287 -1.249,-1.3 -1.415,-1.3 c -1.351,0 -2.255,0.662 -2.28,2.115 l 0,0.446 c 0,1.3 0.994,2.128 2.319,2.37 0.611,0.115 0.942,0.102 1.401,0.025 0,1.325 -0.408,1.631 -1.083,1.631 l -0.102,0 c -0.586,0 -0.968,-0.229 -1.363,-0.752 l -0.739,0.651 c 0.471,0.636 1.032,1.133 2.102,1.133 l 0.102,0 c 1.465,0 2.319,-0.764 2.319,-2.79" /></g><g
           transform="translate(242.7539,34.6289)"
           id="g72"><path
             id="path74"
             style="fill:#a2a2a2;fill-opacity:1;fill-rule:nonzero;stroke:none"
             d="M 0,0 0,4.638 -0.828,4.829 C -0.981,4.854 -1.224,4.854 -1.325,4.854 -2.141,4.816 -2.522,3.976 -2.522,3.16 l 0,-1.746 c 0,-0.803 0.381,-1.643 1.197,-1.682 0.101,0 0.229,0 0.356,0.026 L 0,0 Z m 1.248,-1.465 c 0,-1.542 -1.096,-2.791 -2.637,-2.791 l -0.025,0 c -0.982,0 -1.695,0.459 -2.191,1.224 l 0.891,0.636 c 0.268,-0.496 0.714,-0.828 1.3,-0.828 l 0.025,0 c 0.854,0 1.389,0.689 1.389,1.542 l 0,0.65 -0.969,-0.229 c -0.127,-0.026 -0.28,-0.026 -0.356,-0.026 -1.504,0 -2.446,1.211 -2.446,2.701 l 0,1.746 c 0,1.503 0.942,2.727 2.446,2.727 0.076,0 0.331,0 0.497,-0.026 l 0.891,-0.14 0.077,0.166 1.108,0 0,-7.352 z" /></g><g
           transform="translate(249.4922,38.0059)"
           id="g76"><path
             id="path78"
             style="fill:#a2a2a2;fill-opacity:1;fill-rule:nonzero;stroke:none"
             d="m 0,0 0,-0.905 2.535,0 0,0.905 c 0,0.854 -0.395,1.554 -1.236,1.554 l -0.076,0 C 0.369,1.554 0,0.854 0,0 M 0,-1.911 0,-2.549 C 0,-3.402 0.458,-4.09 1.159,-4.09 l 0.153,0 c 0.599,0 1.006,0.331 1.261,0.816 L 3.478,-3.899 C 2.981,-4.677 2.306,-5.122 1.312,-5.122 l -0.153,0 c -1.363,0 -2.408,1.248 -2.408,2.79 l 0,2.128 c 0,1.528 0.93,2.79 2.472,2.79 l 0.076,0 c 1.529,0 2.472,-1.262 2.472,-2.79 l 0,-1.707 -3.771,0 z" /></g><g
           transform="translate(82.3828,44.1738)"
           id="g80"><path
             id="path82"
             style="fill:#e67e33;fill-opacity:1;fill-rule:nonzero;stroke:none"
             d="m 0,0 -29.089,16.76 0,-34.763 L 0,0 Z" /></g><g
           transform="translate(23.833,78.3164)"
           id="g84"><path
             id="path86"
             style="fill:#e78733;fill-opacity:1;fill-rule:nonzero;stroke:none"
             d="m 0,0 28.746,-16.557 0,34.349 L 0,0 Z" /></g><g
           transform="translate(82.3828,76.5664)"
           id="g88"><path
             id="path90"
             style="fill:#ebac34;fill-opacity:1;fill-rule:nonzero;stroke:none"
             d="m 0,0 -29.089,19.522 0,-34.762 L 0,0 Z" /></g><g
           transform="translate(52.9365,96.3291)"
           id="g92"><path
             id="path94"
             style="fill:#ffffff;fill-opacity:1;fill-rule:nonzero;stroke:none"
             d="M 0,0 0.357,-0.24" /></g><g
           transform="translate(52.5791,61.7598)"
           id="g96"><path
             id="path98"
             style="fill:#ffffff;fill-opacity:1;fill-rule:nonzero;stroke:none"
             d="m 0,0 0,-0.807 0.357,0.187 0,0.414 L 0,0 Z" /></g><g
           transform="translate(52.9365,61.1396)"
           id="g100"><path
             id="path102"
             style="fill:#ffffff;fill-opacity:1;fill-rule:nonzero;stroke:none"
             d="m 0,0 0.357,-0.206 0,0.393 L 0,0 Z" /></g><g
           transform="translate(52.9365,96.3291)"
           id="g104"><path
             id="path106"
             style="fill:#ffffff;fill-opacity:1;fill-rule:nonzero;stroke:none"
             d="m 0,0 -0.357,-0.221 0,-34.348 0.357,-0.206 0,-0.414 0.357,0.186 0,34.763 L 0,0 Z" /></g><g
           transform="translate(52.9365,61.1396)"
           id="g108"><path
             id="path110"
             style="fill:#ffffff;fill-opacity:1;fill-rule:nonzero;stroke:none"
             d="m 0,0 -0.357,-0.187 0,-34.762 0.357,-0.24 0.357,0.22 0,34.763 L 0,0 Z" /></g><g
           transform="translate(52.5791,60.5479)"
           id="g112"><path
             id="path114"
             style="fill:#e05c31;fill-opacity:1;fill-rule:nonzero;stroke:none"
             d="M 0,0 -28.754,-15.062 0,-34.357 0,0 Z" /></g><g
           transform="translate(52.7705,61.457)"
           id="g116"><path
             id="path118"
             style="fill:#ffffff;fill-opacity:1;fill-rule:nonzero;stroke:none"
             d="M 0,0 -0.201,-0.104 0.166,-0.317 0,0 Z" /></g><g
           transform="translate(23.8252,45.4863)"
           id="g120"><path
             id="path122"
             style="fill:#ffffff;fill-opacity:1;fill-rule:nonzero;stroke:none"
             d="M 0,0 -0.337,0.227" /></g><g
           transform="translate(23.4883,45.7129)"
           id="g124"><path
             id="path126"
             style="fill:#ffffff;fill-opacity:1;fill-rule:nonzero;stroke:none"
             d="M 0,0 0,0.405" /></g><g
           transform="translate(52.5791,60.5479)"
           id="g128"><path
             id="path130"
             style="fill:#ffffff;fill-opacity:1;fill-rule:nonzero;stroke:none"
             d="M 0,0 0.523,0.274 0.357,0.592 0,0.405 0,0 Z" /></g><g
           transform="translate(52.5693,61.3525)"
           id="g132"><path
             id="path134"
             style="fill:#ffffff;fill-opacity:1;fill-rule:nonzero;stroke:none"
             d="m 0,0 -29.081,-15.234 0,-0.406 0.337,-0.226 28.754,15.061 0,0.406 0.357,0.186 L 0,0 Z" /></g><g
           transform="translate(52.5791,60.9531)"
           id="g136"><path
             id="path138"
             style="fill:#ffffff;fill-opacity:1;fill-rule:nonzero;stroke:none"
             d="M 0,0 -29.091,-15.24 0,0 Z" /></g><g
           transform="translate(23.4883,46.1182)"
           id="g140"><path
             id="path142"
             style="fill:#dfb149;fill-opacity:1;fill-rule:nonzero;stroke:none"
             d="M 0,0 28.704,15.035 0,31.571 0,0 Z" /></g><g
           transform="translate(23.833,78.3164)"
           id="g144"><path
             id="path146"
             style="fill:#ffffff;fill-opacity:1;fill-rule:nonzero;stroke:none"
             d="m 0,0 -0.345,-0.214 0,-0.413 28.704,-16.536 0.566,-0.323 0.179,0.309 0,0.414 L 0,0 Z" /></g><g
           transform="translate(52.9365,61.5537)"
           id="g148"><path
             id="path150"
             style="fill:#ffffff;fill-opacity:1;fill-rule:nonzero;stroke:none"
             d="M 0,0 0,-0.414 0.179,-0.104 0,0 Z" /></g><g
           transform="translate(54.4365,12.8379)"
           id="g152"><path
             id="path154"
             style="fill:#e05c31;fill-opacity:1;fill-rule:nonzero;stroke:none"
             d="m 0,0 -40.42,27.126 0,44.459 L 0,96.604 35.807,72.572 -1.5,48.302 37.455,23.181 0,0 Z M 12.492,49.028 48.334,72.237 0,104.763 -47.247,75.52 l 0,-51.97 L 0,-8.159 51.851,23.198 12.492,49.028 Z" /></g></g></g></g></svg>